HIERARCHY
ROOT Hips
{
  OFFSET 22.7332 89.9309 -138.891
  CHANNELS 6 Xposition Yposition Zposition Zrotation Xrotation Yrotation
  JOINT RightUpLeg
  {
    OFFSET -8.9458 -8.66707 0.101652
    CHANNELS 3 Zrotation Xrotation Yrotation
    JOINT RightLeg
    {
      OFFSET 0 -44.4227 1.3727
      CHANNELS 3 Zrotation Xrotation Yrotation
      JOINT RightFoot
      {
        OFFSET 0.253549 -42.0924 -1.46059
        CHANNELS 3 Zrotation Xrotation Yrotation
        JOINT RightToes
        {
          OFFSET 0.04 -4.41509 8.4991
          CHANNELS 3 Zrotation Xrotation Yrotation
          End Site
          {
            OFFSET -0.08 -0.137448 9.77979
          }
        }
      }
    }
  }
  JOINT Spine
  {
    OFFSET 0 11.8905 0
    CHANNELS 3 Zrotation Xrotation Yrotation
    JOINT Spine1
    {
      OFFSET 0 25.6574 0.127663
      CHANNELS 3 Zrotation Xrotation Yrotation
      JOINT HEad
      {
        OFFSET 0 8.73416 0.011341
        CHANNELS 3 Zrotation Xrotation Yrotation
        End Site
        {
          OFFSET -0.29 12.7742 2.51395
        }
      }
      JOINT LeftShoulder1
      {
        OFFSET 8.99 -0.362252 -0.22
        CHANNELS 3 Zrotation Xrotation Yrotation
        JOINT LeftArm
        {
          OFFSET 10.2827 -0.00338 0.322123
          CHANNELS 3 Zrotation Xrotation Yrotation
          JOINT LeftForeArm
          {
            OFFSET 32.7669 0.099144 -1.42434
            CHANNELS 3 Zrotation Xrotation Yrotation
            JOINT LeftHand
            {
              OFFSET 27.5643 0.085362 1.02216
              CHANNELS 3 Zrotation Xrotation Yrotation
              End Site
              {
                OFFSET 16.7443 -0.6 1.50291
              }
            }
          }
        }
      }
      JOINT RightShoulder
      {
        OFFSET -8.99 -0.362252 -0.22
        CHANNELS 3 Zrotation Xrotation Yrotation
        JOINT RightArm
        {
          OFFSET -10.2827 -0.00338 0.322123
          CHANNELS 3 Zrotation Xrotation Yrotation
          JOINT RightForeArm
          {
            OFFSET -32.8971 0.099144 -1.42434
            CHANNELS 3 Zrotation Xrotation Yrotation
            JOINT RightHand
            {
              OFFSET -27.4921 0.085362 1.02216
              CHANNELS 3 Zrotation Xrotation Yrotation
              End Site
              {
                OFFSET -16.6312 -0.6 1.50291
              }
            }
          }
        }
      }
    }
  }
  JOINT LeftUpLeg
  {
    OFFSET 8.9458 -8.66707 0.101652
    CHANNELS 3 Zrotation Xrotation Yrotation
    JOINT LeftLeg
    {
      OFFSET 0 -44.4227 1.3727
      CHANNELS 3 Zrotation Xrotation Yrotation
      JOINT LeftFoot
      {
        OFFSET -0.253549 -42.0924 -1.46059
        CHANNELS 3 Zrotation Xrotation Yrotation
        JOINT LeftToes
        {
          OFFSET -0.04 -4.41509 8.4991
          CHANNELS 3 Zrotation Xrotation Yrotation
          End Site
          {
            OFFSET 0.08 -0.047448 9.77979
          }
        }
      }
    }
  }
}
MOTION
Frames:	21
Frame Time:	0.0166667
44.52 91.3912 -122.111 -0.274789 0.729086 -17.6365 -9.34194 -7.96566 -9.5431 -21.4348 44.8135 15.1698 24.8991 0.050604 0.885567 0.0462048 0.000533403 0.662642 -1.1795 17.2024 5.21507 -4.4537e-007 0.0143599 0.00196046 -16.5357 7.98571 25.071 1.59028e-015 6.36111e-015 -3.18055e-015 179.176 -47.6495 -163.278 -98.0954 54.1088 -36.0489 5.91641 19.3299 -0.68127 7.94452 6.24893 7.93886 103.758 -19.0866 91.9823 60.0005 55.3034 59.5098 -4.41221 20.5633 0.209126 -8.75996 -33.1815 6.41838 37.2368 30.5329 -31.9986 26.1437 -1.54824 0.752376 3.35779e-009 1.56031e-007 -4.88727e-009 
43.5432 89.9927 -122.991 -0.204889 0.449406 -17.7106 -8.90932 -9.33274 -9.96221 -20.8943 50.3909 13.6313 15.996 -0.369738 0.251657 0.0462048 0.000533403 0.662642 -1.33325 17.9361 5.59436 -4.4537e-007 0.0143599 0.00196046 -16.2431 7.23072 24.4234 -0 0 1.59028e-015 178.769 -46.7575 -163.13 -99.9216 54.1538 -35.0368 6.05715 19.2511 -0.613749 7.74103 5.8667 7.44572 103.854 -19.8889 92.1117 61.0227 55.6866 59.5961 -4.49383 20.6166 0.096062 -6.32983 -34.5265 6.57668 35.2895 33.1048 -32.1074 31.656 -1.17642 0.812593 3.35779e-009 1.56031e-007 -4.88728e-009 
42.3023 88.4482 -124.058 -0.158853 0.127426 -17.8363 -9.36311 -10.6762 -10.1035 -19.6348 56.3629 11.0742 14.7444 0.0844135 0.334706 0.0462048 0.000533403 0.662642 -1.54758 18.5737 5.96755 -4.4537e-007 0.0143599 0.00196046 -15.8046 6.49986 23.8205 7.95139e-016 -3.18055e-015 1.59028e-015 178.421 -45.9746 -163.042 -101.621 54.0718 -33.9974 6.14536 19.2788 -0.460005 7.5085 5.51794 6.92608 103.995 -20.6291 92.21 62.0387 56.0639 59.6174 -4.52801 20.6081 0.00542109 -3.13292 -36.1254 6.56602 32.4203 36.6736 -31.8312 37.3472 -0.81378 0.944142 3.35778e-009 1.56031e-007 -4.88728e-009 
40.8766 86.9187 -125.257 -0.156335 -0.215874 -18.0202 -9.89543 -12.2766 -10.2312 -18.0283 62.771 7.72551 10.263 0.250338 0.080554 0.0462048 0.000533403 0.662642 -1.81984 19.1028 6.33555 -4.4537e-007 0.0143599 0.00196046 -15.21 5.7964 23.289 -7.95139e-016 0 1.59028e-015 178.107 -45.3535 -163.087 -103.089 53.8696 -33.0241 6.15764 19.335 -0.300751 7.27175 5.16884 6.39341 104.153 -21.2707 92.2333 63.0076 56.4287 59.5805 -4.62935 20.6056 -0.0646986 0.796961 -37.6869 6.40843 28.1702 40.7946 -30.5946 43.2718 -0.412218 1.08378 3.35778e-009 1.56031e-007 -4.88727e-009 
39.3094 85.4398 -126.563 -0.198953 -0.576784 -18.2626 -10.7072 -14.0897 -10.2825 -14.6218 69.4038 1.91567 5.73772 0.604502 -0.0929696 0.0462048 0.000533403 0.662642 -2.15481 19.5156 6.69078 -4.4537e-007 0.0143599 0.00196046 -14.4628 5.14142 22.8581 -2.38542e-015 0 -1.59028e-015 177.781 -44.9558 -163.343 -104.241 53.5692 -32.2096 6.10383 19.4915 -0.0916712 7.05255 4.79962 5.85593 104.296 -21.7814 92.1396 63.8839 56.7674 59.503 -4.74182 20.559 -0.121683 5.30466 -39.0907 5.98371 22.2595 45.1321 -27.8942 49.2768 -0.01668 1.25705 3.35779e-009 1.56031e-007 -4.88727e-009 
38.342 83.2638 -130.408 -0.296594 -0.928735 -18.5871 -13.3342 -18.9843 -11.1866 -9.37012 77.6151 -4.82367 3.1634 0.653763 1.12031 0.0462048 0.000533403 0.662642 -2.50216 19.4162 6.77698 -4.4537e-007 0.0143599 0.00196046 -13.5976 4.86729 22.888 -0 0 3.18055e-015 177.121 -45.1889 -164.277 -105.019 53.205 -31.6297 5.97875 19.6955 0.0992586 6.87015 4.79711 5.59366 104.383 -22.1908 91.9129 64.6036 57.0547 59.4068 -4.91491 20.5154 -0.163443 9.30569 -42.1614 5.69456 16.7287 48.4156 -26.9104 54.4849 2.8143 0.702585 3.35779e-009 1.56031e-007 -4.88728e-009 
37.2678 81.5066 -134.388 -0.427736 -1.26356 -19.0355 -17.0496 -23.046 -11.949 18.4367 83.3376 -33 0.100225 0.80594 2.06884 0.0462048 0.000533403 0.662642 -2.84306 18.8636 6.62098 -4.4537e-007 0.0143599 0.00196046 -12.6973 4.99104 23.3735 7.95139e-016 -3.18055e-015 -0 175.812 -46.1003 -166.197 -105.332 52.8298 -31.5114 5.73003 20.2827 0.535543 6.72809 4.85631 5.56312 104.217 -22.4974 91.2811 65.0178 57.2248 59.4511 -5.06404 20.5508 -0.214663 13.6972 -44.0846 4.88039 9.03727 49.8735 -23.6424 59.2552 5.86724 -0.208285 3.35779e-009 1.56031e-007 -4.88727e-009 
36.299 80.1005 -138.357 -0.603288 -1.541 -19.6097 -21.5002 -26.2693 -12.5757 73.2007 84.2091 -87.2714 -3.22485 1.11149 2.90076 0.0462048 0.000533403 0.662642 -3.10133 17.9046 6.24838 -4.4537e-007 0.0143599 0.00196046 -11.8418 5.48548 24.2466 1.76556e-031 -3.18055e-015 3.18055e-015 173.769 -47.518 -169.111 -105.27 52.481 -31.7566 5.50834 20.5265 0.593337 6.62405 5.1833 5.91679 103.842 -22.784 90.5757 65.1179 57.2854 59.5594 -5.14245 20.4634 -0.288579 17.8412 -44.4269 3.08197 1.4191 46.7567 -19.1392 62.4699 9.03906 -1.46761 3.35779e-009 1.56031e-007 -4.88728e-009 
35.4036 79.0605 -142.339 -0.799753 -1.73626 -20.2828 -26.5196 -28.6936 -12.8708 103.073 81.1722 -115.839 -4.75732 1.66995 3.67168 0.0462048 0.000533403 0.662642 -3.2344 16.5926 5.66512 -4.4537e-007 0.0143599 0.00196046 -11.1177 6.3136 25.4463 7.95139e-016 -3.18055e-015 -1.59028e-015 170.885 -49.2384 -173.012 -104.947 52.2046 -32.2738 5.29597 20.9279 0.668325 6.53748 5.74773 6.68243 103.228 -23.0935 89.8334 64.9088 57.2495 59.7365 -5.2066 20.4105 -0.21934 21.1188 -42.9442 0.034953 -4.00832 39.3741 -14.7648 64.7775 12.705 -3.13179 3.35779e-009 1.56031e-007 -4.88727e-009 
34.5659 78.3267 -146.298 -0.993608 -1.84438 -21.0313 -31.7201 -30.4852 -12.6913 113.498 77.5592 -124.331 -5.87213 2.19174 4.29763 0.0462048 0.000533403 0.662642 -3.30525 15.3223 5.23611 -4.4537e-007 0.0143599 0.00196046 -10.5033 7.15461 26.5392 5.29669e-031 -4.77083e-015 6.36111e-015 167.593 -50.7891 -177.261 -104.48 52.032 -32.9582 5.17669 21.0346 0.521464 6.50244 6.18116 7.52038 102.375 -23.4155 89.0829 64.4476 57.1539 59.9754 -5.16056 20.2691 -0.17373 23.3716 -39.9986 -4.03327 -7.12355 30.3753 -11.7569 67.3408 17.0274 -5.33084 3.35779e-009 1.56031e-007 -4.88727e-009 
33.7577 77.8868 -150.256 -1.16883 -1.87571 -21.8271 -36.7985 -31.7713 -11.7858 116.898 74.0296 -125.334 -5.95634 2.67579 4.79293 0.0462048 0.000533403 0.662642 -3.31177 14.1072 4.9438 -4.4537e-007 0.0143599 0.00196046 -10.0242 7.99211 27.5257 -0 -3.18055e-015 -0 163.971 -52.087 178.295 -103.975 51.9783 -33.708 5.12493 21.1314 0.394035 6.48803 6.54581 8.39548 101.306 -23.7567 88.3517 63.8256 57.0352 60.2701 -5.0913 20.1205 -0.0381401 25.0091 -36.1553 -7.94825 -7.30076 19.7338 -11.1412 69.6017 22.352 -8.58335 3.35779e-009 1.56031e-007 -4.88727e-009 
32.781 78.43 -154.554 -1.27748 -1.87767 -22.6251 -40.2232 -32.312 -10.0967 110.144 69.1285 -116.497 -7.47809 3.35463 4.50998 0.0462048 0.000533403 0.662642 -3.30647 12.9767 4.76061 -4.4537e-007 0.0143599 0.00196046 -9.69034 8.81742 28.4097 -3.97569e-016 1.59028e-015 -0 160.137 -53.0921 173.83 -103.523 52.0342 -34.4422 5.15947 20.9717 0.16916 6.46427 6.90243 9.26206 100.054 -24.1202 87.6555 63.1443 56.9229 60.6075 -4.98916 19.9 0.0624065 27.9627 -35.6695 -10.6549 -7.60927 14.8596 -2.53596 46.8863 23.1878 -3.74549 3.35779e-009 1.56031e-007 -4.88727e-009 
31.8918 78.9123 -158.783 -1.32392 -1.85364 -23.4213 -43.2384 -33.5546 -8.25515 105.109 66.52 -110.682 -8.5197 3.57827 4.73242 0.0462048 0.000533403 0.662642 -3.30116 11.936 4.69942 -4.4537e-007 0.0143599 0.00196046 -9.49403 9.62059 29.1937 -3.97569e-016 -3.18055e-015 -0 156.243 -53.8026 169.527 -103.199 52.1788 -35.0923 5.22808 20.748 -0.00138792 6.41688 7.29222 10.0711 98.657 -24.504 86.9925 62.4907 56.8373 60.9748 -4.94278 19.6609 0.194621 30.8893 -33.1414 -13.052 -5.79603 6.81851 5.60292 23.9478 25.071 0.0867922 3.35779e-009 1.56031e-007 -4.88727e-009 
30.9802 78.7914 -163.13 -1.27548 -1.83234 -24.1943 -45.4251 -35.1354 -6.12616 99.4087 63.287 -104.528 -8.83595 3.40241 4.92948 0.0462048 0.000533403 0.662642 -3.38483 11.0219 4.76451 -4.4537e-007 0.0143599 0.00196046 -9.39976 10.3794 29.8726 -3.97569e-016 0 -0 152.385 -54.2312 165.571 -103.254 52.4368 -35.5483 5.34686 20.1673 -0.166674 6.39648 7.83827 10.75 97.0923 -24.9247 86.3517 61.9905 56.8593 61.3934 -4.84439 19.2132 0.117715 32.1012 -33.9562 -14.5205 -5.62917 7.87572 13.2965 11.3972 26.3748 2.03165 3.35778e-009 1.56031e-007 -4.88728e-009 
30.2236 78.3472 -167.382 -1.16019 -1.78852 -24.9605 -47.4521 -37.1334 -4.16499 94.7723 62.1642 -99.6373 -7.394 3.30388 5.79797 0.0462048 0.000533403 0.662642 -3.5423 10.2245 4.9644 -4.4537e-007 0.0143599 0.00196046 -9.38001 11.0725 30.4476 -8.82781e-032 -1.59028e-015 -3.18055e-015 148.74 -54.4319 162.13 -103.648 52.7977 -35.721 5.43751 19.7932 -0.216378 6.4246 8.40213 11.2572 95.4094 -25.3479 85.582 61.5872 56.9737 61.834 -5.1431 19.0258 0.220165 33.0913 -38.5298 -14.5744 -9.08812 16.9018 21.0923 2.44337 26.2236 3.66121 3.35778e-009 1.56031e-007 -4.88728e-009 
29.5433 77.5406 -171.724 -0.973078 -1.74747 -25.7161 -48.6525 -39.2227 -2.4361 89.8762 60.6475 -94.4706 -5.5792 3.20898 6.64784 0.0462048 0.000533403 0.662642 -3.79249 9.56039 5.27857 -4.4537e-007 0.0143599 0.00196046 -9.4145 11.6843 30.9211 3.97569e-016 3.18055e-015 3.18055e-015 145.462 -54.4801 159.318 -104.339 53.2556 -35.6056 5.5562 19.2915 -0.453738 6.51902 8.95011 11.5981 93.6839 -25.7344 84.6722 61.2136 57.1695 62.3105 -5.45949 18.7709 0.344979 33.4048 -44.3735 -13.6272 -13.5138 28.22 28.2125 -5.01642 26.9626 4.91674 3.35779e-009 1.56031e-007 -4.88727e-009 
28.9511 76.4109 -176.231 -0.718798 -1.728 -26.4508 -48.9104 -41.4303 -1.10644 85.5581 58.9379 -89.9928 -3.75852 3.32695 7.39775 0.0462048 0.000533403 0.662642 -4.12862 9.04051 5.6712 -4.4537e-007 0.0143599 0.00196046 -9.49096 12.2016 31.2963 3.97569e-016 -3.18055e-015 1.27222e-014 142.638 -54.4515 157.168 -105.258 53.7863 -35.2223 5.64753 18.9791 -0.645381 6.68832 9.45325 11.7509 91.9803 -26.0263 83.6424 60.8206 57.4167 62.8318 -5.98558 18.7216 0.599141 32.8839 -50.078 -11.8549 -16.6454 37.8031 33.1779 -10.6131 29.4177 6.31228 3.35778e-009 1.56031e-007 -4.88727e-009 
28.3915 74.9116 -180.874 -0.430834 -1.7326 -27.1504 -48.5736 -43.737 -0.261184 84.2123 56.6013 -88.5213 -2.99673 3.62008 7.67217 0.0462048 0.000533403 0.662642 -4.50373 8.67228 6.09698 -4.4537e-007 0.0143599 0.00196046 -9.6035 12.6163 31.5774 3.97569e-016 -3.18055e-015 -0 140.268 -54.4097 155.631 -106.349 54.3606 -34.6203 5.75483 18.6372 -0.957536 6.92447 9.89638 11.7001 90.3545 -26.1898 82.5387 60.3912 57.6898 63.4037 -6.4494 18.6666 0.858188 32.1213 -56.1559 -8.96586 -18.8136 46.7997 35.6406 -13.8393 32.9335 7.66258 3.35779e-009 1.56031e-007 -4.88727e-009 
27.8643 73.0581 -185.585 -0.16202 -1.75312 -27.8053 -48.1269 -46.2537 0.0767086 84.4345 54.5372 -88.6182 -2.40997 4.27207 7.58565 0.0462048 0.000533403 0.662642 -4.85657 8.46275 6.51399 -4.4537e-007 0.0143599 0.00196046 -9.74403 12.9245 31.7719 -0 -1.59028e-015 -0 138.304 -54.4012 154.621 -107.565 54.9557 -33.8493 5.84822 18.42 -1.19967 7.20634 10.276 11.4402 88.8527 -26.2088 81.4212 59.927 57.9662 64.0239 -6.92608 18.7449 1.13434 31.6807 -62.5083 -4.61249 -19.3185 55.202 35.1426 -15.3248 37.3364 8.92318 3.35779e-009 1.56031e-007 -4.88727e-009 
26.4057 72.2052 -186.761 0.0339864 -1.77416 -28.4105 -45.801 -45.3065 2.91188 82.9161 52.8726 -86.465 0.0712304 3.21019 7.09913 0.0462048 0.000533403 0.662642 -5.13521 8.4152 6.88603 -4.4537e-007 0.0143599 0.00196046 -9.89937 13.1255 31.8904 3.97569e-016 1.59028e-015 3.18055e-015 136.661 -54.4538 154.026 -108.863 55.5512 -32.9631 5.97079 18.185 -1.45644 7.52299 10.5987 10.9841 87.4916 -26.0852 80.3408 59.4327 58.2375 64.6832 -7.26011 18.8143 1.33813 30.5275 -67.02 0.15932 -19.3442 63.6841 33.968 -12.923 37.5407 7.87544 3.35778e-009 1.56031e-007 -4.88727e-009 
24.8506 70.7945 -188.205 0.0502446 -1.75991 -28.9924 -44.0341 -44.7231 3.76476 82.0854 52.7726 -84.7118 2.61411 2.91727 6.53083 0.0462048 0.000533403 0.662642 -5.25208 8.56833 7.17343 0.00235956 0.0148001 -0.00285958 -10.051 13.1893 31.96 -1.19271e-015 -1.59028e-015 3.18055e-015 135.073 -54.6049 153.709 -110.443 56.2297 -31.8489 5.96835 17.6658 -1.5101 8.00738 10.9997 10.0702 86.1334 -25.6387 79.3555 58.9012 58.6043 65.423 -7.58283 18.9759 1.24797 29.07 -70.5918 5.31076 -12.4872 70.1866 27.2186 -10.611 37.7987 6.56499 3.35779e-009 1.56031e-007 -4.88728e-009 
